<svg width="51" height="47" viewBox="0 0 51 47" fill="none" xmlns="http://www.w3.org/2000/svg">
<path fill-rule="evenodd" clip-rule="evenodd" d="M23.6038 23.6042C28.5285 23.0737 30.5831 25.2195 29.7731 30.0417C28.4641 32.5759 26.4095 33.3806 23.6038 32.4558C21.1522 31.0926 20.3475 29.0359 21.1897 26.2865C21.8281 25.2152 22.6328 24.3209 23.6038 23.6042Z" fill="#31506F"/>
<path fill-rule="evenodd" clip-rule="evenodd" d="M24.1403 25.75C27.6648 25.1717 28.8236 26.6025 27.6273 30.0417C25.1006 31.8614 23.5824 31.2353 23.0674 28.1641C23.0781 27.1808 23.4375 26.3761 24.1403 25.75Z" fill="#5C8BB7"/>
<path fill-rule="evenodd" clip-rule="evenodd" d="M18.7755 25.75C17.2198 28.5825 14.897 29.4768 11.8016 28.4323C8.7706 25.4255 8.95299 22.6536 12.338 20.1172C16.9301 19.2594 19.076 21.137 18.7755 25.75Z" fill="#2F4D6F"/>
<path fill-rule="evenodd" clip-rule="evenodd" d="M13.9476 21.4584C15.7662 21.5742 16.8391 22.5581 17.1663 24.4089C16.4529 26.5515 15.0205 27.2666 12.8747 26.5547C12.1773 26.1234 11.8179 25.4974 11.8018 24.6771C12.2577 23.4052 12.9712 22.3323 13.9476 21.4584Z" fill="#6089B3"/>
<path fill-rule="evenodd" clip-rule="evenodd" d="M32.7233 21.4584C32.0688 16.8405 34.0322 14.7843 38.6243 15.2891C42.6799 17.8775 42.857 20.739 39.1608 23.8724C36.28 24.7796 34.1342 23.9749 32.7233 21.4584Z" fill="#2D4D6E"/>
<path fill-rule="evenodd" clip-rule="evenodd" d="M35.4059 17.1667C39.9014 17.0455 40.7919 18.7444 38.0882 22.2631C36.908 22.7056 35.9262 22.4374 35.1376 21.4584C34.8158 19.9987 34.907 18.5685 35.4059 17.1667Z" fill="#5785B2"/>
<path fill-rule="evenodd" clip-rule="evenodd" d="M24.1405 8.58338C30.6155 8.5308 32.2249 11.3027 28.9686 16.8985C23.8991 18.4456 21.485 16.568 21.7264 11.2657C22.2736 10.0924 23.0783 9.19816 24.1405 8.58338Z" fill="#284565"/>
<path fill-rule="evenodd" clip-rule="evenodd" d="M25.2129 10.1927C29.2685 10.4025 29.9874 12.1009 27.3587 15.2891C25.0359 16.0879 23.7805 15.2832 23.6035 12.875C23.7484 11.6986 24.2848 10.8048 25.2129 10.1927Z" fill="#527EA9"/>
<path fill-rule="evenodd" clip-rule="evenodd" d="M39.6976 2.14587C45.6952 2.43663 47.3046 5.20851 44.5258 10.461C41.3607 11.9808 38.7696 11.3553 36.7471 8.58337C36.4306 5.81739 37.4177 3.67156 39.6976 2.14587Z" fill="#334E6A"/>
<path fill-rule="evenodd" clip-rule="evenodd" d="M39.6979 4.29167C43.9842 4.02237 45.0571 5.72133 42.9167 9.38803C40.4651 10.2732 39.0381 9.4685 38.625 6.97396C38.9952 6.07432 39.3492 5.18005 39.6979 4.29167Z" fill="#5F87B3"/>
<path fill-rule="evenodd" clip-rule="evenodd" d="M9.65593 31.6511C12.0968 31.5315 14.0656 32.4257 15.557 34.3334C16.0076 39.1588 13.8618 41.3937 9.11947 41.0391C5.42327 37.6444 5.6003 34.5147 9.65593 31.6511Z" fill="#2A4864"/>
<path fill-rule="evenodd" clip-rule="evenodd" d="M10.1921 33.7969C13.1372 33.7991 14.1189 35.2298 13.1426 38.0886C10.0204 39.9748 8.41102 39.0811 8.31445 35.4063C8.93138 34.7969 9.55367 34.2604 10.1921 33.7969Z" fill="#507DA9"/>
<path fill-rule="evenodd" clip-rule="evenodd" d="M49.8906 43.9896C50.4003 44.7508 50.5773 45.6446 50.4271 46.6719C33.6198 46.6719 16.8072 46.6719 0 46.6719C0 36.1213 0 25.5714 0 15.0208C0 10.0141 0 5.00677 0 0C0.895885 0 1.78641 0 2.68229 0C2.68229 14.663 2.68229 29.3266 2.68229 43.9896C18.4166 43.9896 34.1563 43.9896 49.8906 43.9896Z" fill="#324C66"/>
</svg>
