<svg width="187" height="247" viewBox="0 0 187 247" fill="none" xmlns="http://www.w3.org/2000/svg">
<path fill-rule="evenodd" clip-rule="evenodd" d="M105.967 34.9444C107.632 34.7299 109.108 35.15 110.382 36.2058C113.99 42.5927 117.56 48.9001 121.105 55.128C122.732 58.7938 123.993 62.5783 124.889 66.4813C113.952 66.4813 103.028 66.4813 92.0906 66.4813C90.703 65.0924 90.5012 63.4109 91.4599 61.4354C96.9473 52.9747 101.791 44.1443 105.967 34.9444Z" fill="#294D6C"/>
<path fill-rule="evenodd" clip-rule="evenodd" d="M78.2145 55.128C78.4289 63.1283 78.2145 71.1173 77.5838 79.0961C76.461 84.441 73.3073 86.7545 68.1227 86.0342C68.8291 85.5511 69.2454 84.9203 69.3842 84.142C71.3142 84.2341 72.5757 83.3927 73.1686 81.619C81.0402 55.6478 71.7936 45.7654 45.4161 51.9743C43.3473 53.3985 42.0858 55.2908 41.6317 57.651C40.6099 60.3392 39.9791 63.2822 39.7394 66.4813C39.3232 65.6399 38.8943 64.7998 38.478 63.9584C38.2635 70.0778 37.6328 75.9651 36.5858 81.619C29.2566 50.0695 41.4424 38.9269 73.1686 48.1899C75.6411 50.0203 77.3315 52.3326 78.2145 55.128Z" fill="#294965"/>
<path fill-rule="evenodd" clip-rule="evenodd" d="M107.228 43.7748C109.209 44.3261 110.685 45.5876 111.643 47.5593C113.195 51.9139 115.087 56.1184 117.32 60.174C111.013 61.8556 104.705 61.8556 98.3979 60.174C101.589 54.7825 104.529 49.3165 107.228 43.7748Z" fill="#5289B6"/>
<path fill-rule="evenodd" clip-rule="evenodd" d="M163.995 86.665C153.058 86.665 142.134 86.665 131.197 86.665C130.995 84.933 131.209 83.2502 131.827 81.6191C136.596 73.34 141.011 64.931 145.073 56.3895C146.978 54.8404 148.87 54.8404 150.75 56.3895C155.051 65.4192 159.681 74.2495 164.626 82.8806C165.559 84.4561 165.345 85.7176 163.995 86.665Z" fill="#294B6D"/>
<path fill-rule="evenodd" clip-rule="evenodd" d="M73.1688 81.6191C72.5759 83.3927 71.3144 84.2341 69.3843 84.142C60.7432 84.5507 52.3292 84.1307 44.1548 82.8806C45.4163 82.9184 46.2488 82.2877 46.6777 80.9883C45.4036 72.8102 44.7729 64.6106 44.7855 56.3895C45.4163 55.7588 46.047 55.1281 46.6777 54.4973C53.4014 53.6559 60.1377 53.6559 66.8614 54.4973C68.0219 54.9691 69.069 55.5999 70.0151 56.3895C70.507 65.0534 71.5667 73.4624 73.1688 81.6191Z" fill="#588DBF"/>
<path fill-rule="evenodd" clip-rule="evenodd" d="M121.105 55.1281C123.641 55.9683 125.949 55.9683 128.043 55.1281C130.806 56.2622 133.543 57.5237 136.243 58.9125C137.921 55.5482 139.611 55.5482 141.289 58.9125C142.26 57.5098 143.521 56.6684 145.073 56.3896C141.011 64.931 136.596 73.3401 131.828 81.6191C131.209 83.2502 130.995 84.933 131.197 86.665C142.134 86.665 153.058 86.665 163.995 86.665C157.019 87.6427 149.867 88.6948 142.55 89.8187C148.895 90.7913 154.988 92.2622 160.842 94.2339C163.579 94.0232 166.304 93.8138 169.041 93.6032C168.196 92.7618 167.363 91.9216 166.518 91.0802C168.537 90.7358 170.429 90.1051 172.195 89.188C174.478 90.587 175.538 89.7456 175.349 86.665C182.034 89.1325 182.034 91.8661 175.349 94.8646C162.09 98.1836 148.63 100.076 134.981 100.541C134.767 98.8736 135.183 97.4015 136.243 96.1261C135.044 95.3478 133.997 95.5572 133.089 96.7568C129.683 95.2784 127.589 92.7554 126.782 89.188C124.473 91.6025 121.95 92.4439 119.213 91.7109C118.582 91.2909 117.951 90.8695 117.321 90.4495C119.087 88.7566 118.67 87.7045 116.059 87.2958C116.274 85.8867 116.69 84.4146 117.321 82.8806C114.823 77.8675 111.038 75.5539 105.967 75.9425C109.335 74.2609 109.335 72.5781 105.967 70.8966C109.499 69.3424 113.284 68.501 117.321 68.3736C108.679 68.1566 100.278 67.5259 92.0911 66.4814C103.028 66.4814 113.952 66.4814 124.889 66.4814C123.994 62.5784 122.732 58.794 121.105 55.1281Z" fill="#E7ECF3"/>
<path fill-rule="evenodd" clip-rule="evenodd" d="M147.596 63.9584C151.847 69.1065 154.799 74.9926 156.426 81.6191C150.485 82.0316 144.594 81.6103 138.766 80.3576C141.402 74.6558 144.341 69.1898 147.596 63.9584Z" fill="#4A82B4"/>
<path fill-rule="evenodd" clip-rule="evenodd" d="M73.1688 81.6191C71.5667 73.4624 70.5071 65.0534 70.0151 56.3896C69.069 55.5999 68.022 54.9692 66.8614 54.4974C60.1378 53.656 53.4015 53.656 46.6778 54.4974C46.0471 55.1281 45.4163 55.7588 44.7856 56.3896C44.773 64.6106 45.4037 72.8102 46.6778 80.9884C46.2489 82.2877 45.4163 82.9184 44.1548 82.8806C43.3727 82.7406 42.742 82.3205 42.2626 81.6191C41.6319 73.6403 41.4174 65.6513 41.6319 57.6511C42.086 55.2908 43.3475 53.3986 45.4163 51.9744C71.7938 45.7654 81.0404 55.6478 73.1688 81.6191Z" fill="#638CAF"/>
<path fill-rule="evenodd" clip-rule="evenodd" d="M163.995 37.4674C147.848 46.0593 136.911 41.8548 131.197 24.8526C130.995 21.463 131.197 18.0987 131.827 14.7608C136.76 4.20098 144.959 0.207147 156.426 2.77678C173.532 11.182 176.055 22.7447 163.995 37.4674Z" fill="#2C5274"/>
<path fill-rule="evenodd" clip-rule="evenodd" d="M145.073 7.19193C159.491 5.63022 166.43 11.9376 165.887 26.1141C156.035 41.137 146.359 41.137 136.873 26.1141C135.498 17.9422 138.236 11.6348 145.073 7.19193Z" fill="#548CBB"/>
<path fill-rule="evenodd" clip-rule="evenodd" d="M98.3985 18.5453C96.4937 20.2307 94.387 21.7028 92.0912 22.9605C80.3216 24.4427 74.8594 19.1862 75.692 7.19205C77.4959 4.74857 79.6025 2.43628 81.9993 0.253928C96.1531 -1.36202 101.615 4.73469 98.3985 18.5453Z" fill="#315576"/>
<path fill-rule="evenodd" clip-rule="evenodd" d="M84.5219 4.66898C92.7215 3.40624 95.8752 6.76934 93.983 14.7608C89.7066 19.6843 85.5059 19.6843 81.3682 14.7608C80.132 10.6295 81.179 7.26636 84.5219 4.66898Z" fill="#6190BB"/>
<path fill-rule="evenodd" clip-rule="evenodd" d="M41.3559 46.8733C25.209 55.4652 14.272 51.2607 8.55748 34.2586C8.35564 30.869 8.55748 27.5046 9.18822 24.1667C14.1206 13.6069 22.3202 9.61309 33.787 12.1827C50.8926 20.5879 53.4156 32.1506 41.3559 46.8733Z" fill="#2C5274"/>
<path fill-rule="evenodd" clip-rule="evenodd" d="M22.4336 16.5979C36.8523 15.0362 43.7904 21.3435 43.248 35.52C33.3959 50.5429 23.7203 50.5429 14.234 35.52C12.859 27.3482 15.5964 21.0408 22.4336 16.5979Z" fill="#548CBB"/>
<path fill-rule="evenodd" clip-rule="evenodd" d="M78.2147 55.1281C86.1746 85.2181 74.8213 96.3607 44.1548 88.5572C40.2316 87.6666 37.7087 85.3544 36.5859 81.6191C37.633 75.9652 38.2637 70.0779 38.4782 63.9585C38.8944 64.7999 39.3233 65.64 39.7396 66.4814C39.9793 63.2823 40.61 60.3393 41.6318 57.6511C41.4174 65.6514 41.6318 73.6403 42.2626 81.6191C42.7419 82.3205 43.3727 82.7406 44.1548 82.8806C52.3292 84.1307 60.7432 84.5508 69.3843 84.1421C69.2456 84.9204 68.8293 85.5511 68.1229 86.0343C73.3075 86.7546 76.4612 84.441 77.5839 79.0962C78.2147 71.1173 78.4291 63.1284 78.2147 55.1281Z" fill="#31526E"/>
<path fill-rule="evenodd" clip-rule="evenodd" d="M134.981 100.541C148.63 100.076 162.09 98.1835 175.348 94.8646C182.034 91.8661 182.034 89.1324 175.348 86.665C170.479 86.4253 168.385 83.9024 169.041 79.0961C174.011 79.4216 178.641 80.8925 182.917 83.5113C186.311 86.858 187.37 90.8531 186.071 95.4953C164.386 122.872 142.096 149.783 119.213 176.23C117.421 178.633 115.945 181.156 114.798 183.799C113.751 198.717 113.12 213.855 112.905 229.212C102.486 235.37 91.763 241.047 80.7377 246.242C75.1619 248.22 72.639 246.328 73.1688 240.565C73.3833 221.218 73.1688 201.876 72.5381 182.537C47.9645 153.566 23.9964 124.131 0.633892 94.2339C-0.211297 92.131 -0.211297 90.0293 0.633892 87.9265C5.83118 81.8512 12.353 79.1176 20.1868 79.7269C21.2464 81.0022 21.6627 82.4744 21.4483 84.142C16.9574 84.7286 12.7567 86.2008 8.83349 88.5572C7.63509 89.4629 7.42064 90.5138 8.20275 91.7109C11.1041 93.6889 14.2578 95.161 17.6638 96.1261C56.5678 103.353 95.6736 104.824 134.981 100.541Z" fill="#34506B"/>
<path fill-rule="evenodd" clip-rule="evenodd" d="M88.3066 172.445C88.9374 176.938 90.6278 181.142 93.3525 185.06C95.0177 181.871 96.481 181.871 97.7677 185.06C100.152 184.266 102.259 183.004 104.075 181.276C104.491 182.537 104.92 183.799 105.337 185.06C105.627 183.5 106.257 182.238 107.229 181.276C107.645 196.436 107.229 211.574 105.967 226.689C100.404 230.312 94.5131 233.255 88.3066 235.519C88.3066 214.494 88.3066 193.471 88.3066 172.445Z" fill="#D1E0EE"/>
<path fill-rule="evenodd" clip-rule="evenodd" d="M70.6458 149.739C76.0954 157.699 81.9739 165.268 88.3065 172.445C88.3065 193.47 88.3065 214.494 88.3065 235.519C86.1368 237.24 83.6138 238.501 80.7376 239.304C79.4762 219.559 79.0599 199.795 79.4762 180.014C80.6998 178.036 80.9142 175.933 80.1069 173.707C68.0976 158.104 55.4829 142.966 42.2626 128.294C39.399 122.978 36.2453 117.932 32.8015 113.156C33.1926 112.137 33.8233 111.295 34.6937 110.633C36.1697 112.39 38.0619 113.442 40.3704 113.787C50.7649 125.642 60.8568 137.626 70.6458 149.739Z" fill="#E8F0F9"/>
<path fill-rule="evenodd" clip-rule="evenodd" d="M129.935 153.523C122.972 163.249 115.403 172.5 107.228 181.276C106.257 182.238 105.626 183.5 105.336 185.06C104.92 183.799 104.491 182.537 104.075 181.276C102.258 183.004 100.151 184.266 97.7673 185.06C96.4806 181.871 95.0173 181.871 93.3521 185.06C90.6273 181.142 88.937 176.938 88.3062 172.445C81.9736 165.268 76.0951 157.699 70.6455 149.739C70.9735 147.874 70.5572 146.193 69.3841 144.693C64.54 139.207 59.7085 133.74 54.8771 128.294C54.486 125.908 55.5331 124.226 58.0308 123.248C59.5446 123.684 59.5446 124.315 58.0308 125.14C62.8244 124.764 67.2396 126.656 71.2763 130.817C71.6926 130.397 72.1215 129.975 72.5378 129.555C73.7362 132.194 75.4265 132.614 77.5837 130.817C80.9014 131.357 83.8406 132.618 86.414 134.601C87.0195 133.405 87.234 132.144 87.0447 130.817C89.5425 130.669 91.6491 131.511 93.3521 133.34C94.5253 131.9 95.5723 131.9 96.5058 133.34C97.351 129.975 98.1836 129.975 99.0288 133.34C104.15 132.629 108.767 132.208 112.905 132.078C113.069 135.894 114.33 139.259 116.689 142.17C117.736 139.016 119.212 138.806 121.105 141.539C120.247 144.823 120.032 147.977 120.474 151C122.53 151.753 124.624 151.332 126.781 149.739C128.093 150.84 129.153 152.102 129.935 153.523Z" fill="#C6D8EB"/>
<path fill-rule="evenodd" clip-rule="evenodd" d="M129.935 153.523C129.153 152.102 128.094 150.84 126.782 149.739C124.624 151.332 122.53 151.753 120.474 151C120.033 147.977 120.247 144.823 121.105 141.539C119.213 138.806 117.737 139.016 116.69 142.17C114.331 139.259 113.069 135.894 112.905 132.078C108.768 132.208 104.151 132.63 99.0291 133.34C98.1839 129.975 97.3513 129.975 96.5061 133.34C95.5726 131.9 94.5256 131.9 93.3524 133.34C91.6494 131.511 89.5428 130.669 87.045 130.817C87.2343 132.144 87.0198 133.405 86.4143 134.601C83.8409 132.618 80.9017 131.357 77.584 130.817C75.4268 132.614 73.7365 132.194 72.5381 129.555C72.1218 129.975 71.6929 130.397 71.2766 130.817C67.2399 126.656 62.8247 124.764 58.0311 125.14C59.5449 124.315 59.5449 123.684 58.0311 123.248C55.5334 124.226 54.4863 125.908 54.8774 128.294C59.7088 133.74 64.5403 139.207 69.3844 144.693C70.5575 146.193 70.9738 147.874 70.6459 149.739C60.8568 137.626 50.765 125.642 40.3704 113.787C38.0619 113.442 36.1697 112.39 34.6938 110.633C33.8233 111.295 33.1926 112.137 32.8015 113.156C36.2454 117.932 39.3991 122.978 42.2626 128.294C55.4829 142.966 68.0977 158.104 80.1069 173.707C80.9143 175.933 80.6998 178.036 79.4762 180.014C57.0219 153.975 34.7316 127.695 12.6179 101.172C19.8714 103.612 27.4403 105.293 35.3245 106.218C71.491 110.422 107.645 110.422 143.812 106.218C153.739 105.537 163.402 103.645 172.825 100.541C174.112 101.175 174.327 102.015 173.456 103.064C159.126 120.127 144.619 136.946 129.935 153.523Z" fill="#CDDCEE"/>
</svg>
